<svg version="1.1" id="Layer_1" xmlns:x="ns_extend;" xmlns:i="ns_ai;" xmlns:graph="ns_graphs;" xmlns="http://www.w3.org/2000/svg" xmlns:xlink="http://www.w3.org/1999/xlink" x="0px" y="0px" viewBox="0 0 1114.1 332.3" style="enable-background:new 0 0 1114.1 332.3;" xml:space="preserve">
 <style type="text/css">
  .st0{fill:#0B2038;}
	.st1{fill:url(#SVGID_1_);}
	.st2{fill:url(#SVGID_2_);}
 </style>
 <metadata>
  <sfw xmlns="ns_sfw;">
   <slices>
   </slices>
   <sliceSourceBounds bottomLeftOrigin="true" height="332.3" width="1114.1" x="2.4" y="5.6">
   </sliceSourceBounds>
  </sfw>
 </metadata>
 <g>
  <g>
   <path class="st0" d="M539.5,297.6H427.3c-72.1,0-130.7-58.7-130.7-130.7S355.2,36.1,427.3,36.1S558,94.7,558,166.8
			c0,29.9-8.5,47-16.3,64.2c-4.8,10.7-16.8,12.8-24.5,9.3c-7.8-3.5-14-14-9.3-24.5c6.2-13.9,13-26.7,13.1-49
			c0-51.7-42-93.7-93.7-93.7s-93.7,42-93.7,93.7s42,93.7,93.7,93.7h112.2c10.2,0,18.5,8.3,18.5,18.5S549.7,297.6,539.5,297.6
			L539.5,297.6z">
   </path>
   <path class="st0" d="M984.1,297.6c-0.2,0-0.5,0-0.6,0h-92c-8.8,0-18.5-6.6-18.5-18.6s9.7-18.5,18.5-18.5H984
			c52.7,0,93-43.5,93-93.7s-40.3-93.6-93.7-93.7H910v150.2c0,8.8-6.6,18.6-18.6,18.6s-18.5-9.7-18.5-18.6V54.7
			c0-10.3,8.3-18.6,18.6-18.6h92.5c71.1,0,130,58.4,130,130.8S1055.2,297.6,984.1,297.6L984.1,297.6z">
   </path>
   <path class="st0" d="M835,273c-0.3-1.1-0.8-2.2-1.3-3.2L787,165L735.5,49.6c0,0-5.8-13.5-20.2-13.5s-20.5,13.7-20.5,13.7
			l-97.6,219.7c-0.7,1.5-0.8,1.8-1.2,2.6c-3.1,7-1.7,18.9,9.8,24c11.5,5.1,21.3-2.6,24.3-9.5l85.2-191.6l65,146.9l19.9,44.7
			c0.4,0.9,0.9,1.8,1.5,2.6c1.9,3.4,4.9,6,8.5,7.3c0,0,0.1,0,0.1,0c1.1,0.4,2.2,0.6,3.3,0.8c3.3,0.7,7,0.5,11-1.3
			c8.3-3.7,11.3-11,11.2-17.4C835.7,276.7,835.5,274.8,835,273L835,273z">
   </path>
  </g>
  <g>
   <linearGradient id="SVGID_1_" gradientUnits="userSpaceOnUse" x1="145.6096" y1="187.659" x2="69.8296" y2="50.409" gradientTransform="matrix(1 0 0 -1 0 336.0614)">
    <stop offset="0.14" style="stop-color:#FA335B">
    </stop>
    <stop offset="1" style="stop-color:#FB0436">
    </stop>
   </linearGradient>
   <path class="st1" d="M12.5,202.7L12.5,202.7c-8.8-13.6-14.9-28.9-11.6-45c9.6-48.2,95.3-69.8,103.3-57.6
			C112,112.1,41.5,153.9,12.5,202.7L12.5,202.7z M33.7,229.4c-6.8-7.7-14.7-16.7-21.2-26.6c-9.5,16-14.6,32.7-10.9,49.4
			c8.4,38.8,59.7,59.3,77.8,66.6c52.9,21.2,110.7,13.5,112.3,3.2C193.8,308.8,100.6,304.5,33.7,229.4L33.7,229.4z">
   </path>
   <linearGradient id="SVGID_2_" gradientUnits="userSpaceOnUse" x1="71.766" y1="362.676" x2="174.996" y2="133.406" gradientTransform="matrix(1 0 0 -1 0 336.0614)">
    <stop offset="0.33" style="stop-color:#E87D3C">
    </stop>
    <stop offset="1" style="stop-color:#EE5B30">
    </stop>
   </linearGradient>
   <path class="st2" d="M193.8,129.5L193.8,129.5c8.8,13.6,14.9,28.9,11.6,45c-9.6,48.2-95.3,69.8-103.3,57.6
			C94.3,220.1,164.8,178.3,193.8,129.5z M172.6,102.9c6.8,7.7,14.7,16.7,21.2,26.6c9.5-16,14.6-32.7,10.9-49.4
			c-8.4-38.8-59.6-59.3-77.8-66.6C74-7.8,16.2,0,14.6,10.3C12.5,23.5,105.7,27.7,172.6,102.9L172.6,102.9z">
   </path>
  </g>
 </g>
</svg>