<svg width="27" height="19" viewBox="0 0 27 19" fill="none" xmlns="http://www.w3.org/2000/svg">
<rect x="0.518799" y="0.0712891" width="20.151" height="2.9011" rx="1.45055" fill="black"/>
<rect x="0.518799" y="5.87402" width="20.151" height="2.9011" rx="1.45055" fill="black"/>
<rect x="0.518799" y="11.6758" width="15.833" height="2.9011" rx="1.45055" fill="black"/>
<g clip-path="url(#clip0_1_8679)">
<path d="M22.6837 10.4757C22.6837 10.1294 22.4048 9.84961 22.0596 9.84961C21.7144 9.84961 21.4355 10.1294 21.4355 10.4757V13.2932H18.627C18.2818 13.2932 18.0029 13.573 18.0029 13.9194C18.0029 14.2657 18.2818 14.5455 18.627 14.5455H21.4355V17.363C21.4355 17.7093 21.7144 17.9891 22.0596 17.9891C22.4048 17.9891 22.6837 17.7093 22.6837 17.363V14.5455H25.4921C25.8373 14.5455 26.1162 14.2657 26.1162 13.9194C26.1162 13.573 25.8373 13.2932 25.4921 13.2932H22.6837V10.4757Z" fill="black"/>
</g>
<defs>
<clipPath id="clip0_1_8679">
<rect width="8.73736" height="10.0179" fill="white" transform="translate(17.6907 8.91016)"/>
</clipPath>
</defs>
</svg>
