<svg xmlns="http://www.w3.org/2000/svg" width="15" height="15" viewBox="0 0 15 15" fill="none">
  <path d="M4.96223 13.4667C4.78648 13.2909 4.68774 13.0525 4.68774 12.8039C4.68774 12.5553 4.78648 12.3169 4.96223 12.1411L9.60286 7.50049L4.96223 2.85987C4.79146 2.68306 4.69696 2.44625 4.6991 2.20044C4.70124 1.95463 4.79983 1.71949 4.97365 1.54567C5.14747 1.37185 5.38261 1.27326 5.62842 1.27112C5.87423 1.26898 6.11104 1.36348 6.28786 1.53425L11.5913 6.83768C11.767 7.01348 11.8658 7.2519 11.8658 7.50049C11.8658 7.74908 11.767 7.98749 11.5913 8.1633L6.28786 13.4667C6.11205 13.6425 5.87364 13.7412 5.62504 13.7412C5.37645 13.7412 5.13804 13.6425 4.96223 13.4667Z" fill="#212121"/>
</svg>
