<svg xmlns="http://www.w3.org/2000/svg" width="15" height="15" viewBox="0 0 15 15" fill="none">
  <path d="M10.0378 1.53328C10.2135 1.70908 10.3123 1.9475 10.3123 2.19609C10.3123 2.44468 10.2135 2.68309 10.0378 2.8589L5.39714 7.49951L10.0378 12.1401C10.2085 12.3169 10.303 12.5538 10.3009 12.7996C10.2988 13.0454 10.2002 13.2805 10.0263 13.4543C9.85253 13.6281 9.61739 13.7267 9.37158 13.7289C9.12577 13.731 8.88896 13.6365 8.71214 13.4657L3.40871 8.16232C3.23295 7.98652 3.13422 7.7481 3.13422 7.49951C3.13422 7.25092 3.23295 7.01251 3.40871 6.8367L8.71214 1.53328C8.88795 1.35752 9.12636 1.25879 9.37496 1.25879C9.62355 1.25879 9.86196 1.35752 10.0378 1.53328Z" fill="#212121"/>
</svg>
