<svg width="20" height="20" viewBox="0 0 20 20" fill="none" xmlns="http://www.w3.org/2000/svg">
<g clip-path="url(#clip0_1_11077)">
<path d="M0.833344 15V17.5H3.33334C3.33334 16.1167 2.21668 15 0.833344 15ZM0.833344 11.6667V13.3333C3.13334 13.3333 5.00001 15.2 5.00001 17.5H6.66668C6.66668 14.275 4.05834 11.6667 0.833344 11.6667ZM15.8333 5.83333H4.16668V7.19167C7.46668 8.25833 10.075 10.8667 11.1417 14.1667H15.8333V5.83333ZM0.833344 8.33333V10C4.97501 10 8.33334 13.3583 8.33334 17.5H10C10 12.4333 5.89168 8.33333 0.833344 8.33333ZM17.5 2.5H2.50001C1.58334 2.5 0.833344 3.25 0.833344 4.16667V6.66667H2.50001V4.16667H17.5V15.8333H11.6667V17.5H17.5C18.4167 17.5 19.1667 16.75 19.1667 15.8333V4.16667C19.1667 3.25 18.4167 2.5 17.5 2.5Z" fill="white"/>
</g>
<defs>
<clipPath id="clip0_1_11077">
<rect width="20" height="20" fill="white"/>
</clipPath>
</defs>
</svg>
