<?xml version="1.0" standalone="no"?>
<!DOCTYPE svg PUBLIC "-//W3C//DTD SVG 20010904//EN"
 "http://www.w3.org/TR/2001/REC-SVG-20010904/DTD/svg10.dtd">
<svg version="1.0" xmlns="http://www.w3.org/2000/svg"
 width="20" height="20" viewBox="0 0 512 512"
 preserveAspectRatio="xMidYMid meet">

<g transform="translate(0.000000,512.000000) scale(0.100000,-0.100000)"
fill="#005F65" stroke="none">
<path d="M2394 4870 c-1072 -83 -1938 -871 -2118 -1930 -97 -567 33 -1174 352
-1655 552 -831 1550 -1213 2519 -964 874 224 1546 960 1697 1859 138 822 -181
1657 -834 2184 -451 364 -1044 550 -1616 506z m585 -983 c13 -6 34 -25 45 -40
19 -25 21 -45 24 -168 l4 -139 236 0 c138 0 253 -5 276 -11 77 -21 113 -97 79
-167 -37 -77 33 -72 -1083 -72 -1116 0 -1046 -5 -1083 72 -34 69 3 146 82 168
20 5 143 10 274 10 l237 0 0 125 c0 144 11 184 62 215 32 19 49 20 428 20 294
0 401 -3 419 -13z m-1218 -732 c16 -9 39 -30 49 -48 19 -31 20 -55 20 -748 l0
-715 25 -51 c30 -60 78 -100 143 -119 67 -21 1058 -20 1126 0 66 20 110 57
140 118 l26 52 0 715 c0 697 1 717 20 749 64 105 210 66 225 -61 3 -29 5 -362
3 -742 -3 -673 -4 -692 -25 -752 -54 -160 -178 -276 -340 -318 -85 -22 -1141
-22 -1226 0 -167 43 -299 171 -343 332 -18 64 -19 116 -19 793 0 703 1 726 20
754 34 51 101 69 156 41z m626 -252 c52 -34 53 -46 53 -531 l0 -449 -23 -34
c-42 -62 -108 -76 -168 -36 -19 13 -39 38 -46 57 -15 44 -18 867 -3 921 23 82
116 118 187 72z m500 -15 c12 -12 27 -38 33 -57 15 -54 12 -877 -3 -921 -7
-19 -27 -44 -46 -57 -60 -40 -126 -26 -168 36 l-23 34 0 449 c0 390 2 454 16
483 35 75 129 91 191 33z"/>
<path d="M2320 3600 l0 -60 240 0 240 0 0 60 0 60 -240 0 -240 0 0 -60z"/>
</g>
</svg>
