<svg version="1.2" xmlns="http://www.w3.org/2000/svg" viewBox="0 0 30 30" width="20" height="20">
	<title>edit_green-svg</title>
	<style>
		.s0 { fill: #005f65 } 
		.s1 { fill: #ffffff } 
	</style>
	<path id="Layer 1" class="s0" d="m15 30c-8.3 0-15-6.7-15-15 0-8.3 6.7-15 15-15 8.3 0 15 6.7 15 15 0 8.3-6.7 15-15 15z"/>
	<g id="Layer">
		<g id="Layer">
			<path id="Layer" class="s1" d="m21.2 24.6h-12c-1.8 0-3.2-1.4-3.2-3.1v-12.2c0-1.7 1.4-3.1 3.2-3.1h7.3c0.8 0 1.5 0.6 1.5 1.4 0 0.8-0.7 1.4-1.5 1.4h-7.3c-0.2 0-0.4 0.2-0.4 0.3v12.2c0 0.2 0.2 0.3 0.4 0.3h12c0.2 0 0.4-0.1 0.4-0.3v-7.2c0-0.8 0.6-1.4 1.4-1.4 0.7 0 1.4 0.6 1.4 1.4v7.2c0 1.7-1.4 3.1-3.2 3.1z"/>
		</g>
		<g id="Layer">
			<g id="Layer">
				<path id="Layer" class="s1" d="m16.9 16.2l-2.4-2.7 5.9-5.5 2.4 2.6z"/>
			</g>
			<g id="Layer">
				<path id="Layer" class="s1" d="m23.1 6.2l1.7 1.8c0.2 0.2 0.2 0.6-0.1 0.8l-1.4 1.4-2.5-2.6 1.5-1.4c0.2-0.3 0.6-0.3 0.8 0z"/>
			</g>
			<g id="Layer">
				<path id="Layer" class="s1" d="m14.1 13.9l2.4 2.7-3.4 0.8z"/>
			</g>
		</g>
	</g>
</svg>