<svg version="1.2" xmlns="http://www.w3.org/2000/svg" viewBox="0 0 1792 1792" width="20" height="20">
	<title>1608863_table_icon-svg</title>
	<style>
		.s0 { fill: #005f65 } 
		.s1 { fill: #ffffff } 
	</style>
	<path id="Layer 1" class="s0" d="m896 1792c-495.5 0-896-400.5-896-896 0-495.5 400.5-896 896-896 495.5 0 896 400.5 896 896 0 495.5-400.5 896-896 896z"/>
	<path id="Layer" fill-rule="evenodd" class="s1" d="m1499.2 502v788.7q0 47.8-34 81.9-34.1 34-82 34h-974.2q-47.9 0-81.9-34-34.1-34.1-34.1-81.9v-788.7q0-47.9 34.1-81.9 34-34.1 81.9-34.1h974.2q47.9 0 82 34.1 34 34 34 81.9zm-835.1 510.3v-139.2q0-10.1-6.5-16.6-6.5-6.6-16.7-6.6h-231.9q-10.2 0-16.7 6.6-6.5 6.5-6.5 16.6v139.2q0 10.2 6.5 16.7 6.5 6.5 16.7 6.5h231.9q10.2 0 16.7-6.5 6.5-6.5 6.5-16.7zm371.2 278.4v-139.2q0-10.2-6.5-16.7-6.6-6.5-16.7-6.5h-232q-10.1 0-16.6 6.5-6.6 6.5-6.6 16.7v139.2q0 10.1 6.6 16.6 6.5 6.6 16.6 6.6h232q10.1 0 16.7-6.6 6.5-6.5 6.5-16.6zm-371.2-556.8v-139.1q0-10.2-6.5-16.7-6.5-6.5-16.7-6.5h-231.9q-10.2 0-16.7 6.5-6.5 6.5-6.5 16.7v139.1q0 10.2 6.5 16.7 6.5 6.5 16.7 6.5h231.9q10.2 0 16.7-6.5 6.5-6.5 6.5-16.7zm371.2 278.4v-139.2q0-10.1-6.5-16.6-6.6-6.6-16.7-6.6h-232q-10.1 0-16.6 6.6-6.6 6.5-6.6 16.6v139.2q0 10.2 6.6 16.7 6.5 6.5 16.6 6.5h232q10.1 0 16.7-6.5 6.5-6.5 6.5-16.7zm371.1 278.4v-139.2q0-10.2-6.5-16.7-6.5-6.5-16.7-6.5h-231.9q-10.2 0-16.7 6.5-6.5 6.5-6.5 16.7v139.2q0 10.1 6.5 16.6 6.5 6.6 16.7 6.6h231.9q10.2 0 16.7-6.6 6.5-6.5 6.5-16.6zm-371.1-556.8v-139.1q0-10.2-6.5-16.7-6.6-6.5-16.7-6.5h-232q-10.1 0-16.6 6.5-6.6 6.5-6.6 16.7v139.1q0 10.2 6.6 16.7 6.5 6.5 16.6 6.5h232q10.1 0 16.7-6.5 6.5-6.5 6.5-16.7zm371.1 278.4v-139.2q0-10.1-6.5-16.6-6.5-6.6-16.7-6.6h-231.9q-10.2 0-16.7 6.6-6.5 6.5-6.5 16.6v139.2q0 10.2 6.5 16.7 6.5 6.5 16.7 6.5h231.9q10.2 0 16.7-6.5 6.5-6.5 6.5-16.7zm0-278.4v-139.1q0-10.2-6.5-16.7-6.5-6.5-16.7-6.5h-231.9q-10.2 0-16.7 6.5-6.5 6.5-6.5 16.7v139.1q0 10.2 6.5 16.7 6.5 6.5 16.7 6.5h231.9q10.2 0 16.7-6.5 6.5-6.5 6.5-16.7zm-742.3 556.8v-139.2q0-10.2-6.5-16.7-6.5-6.5-16.7-6.5h-231.9q-10.2 0-16.7 6.5-6.5 6.5-6.5 16.7v139.2q0 10.1 6.5 16.6 6.5 6.6 16.7 6.6h231.9q10.2 0 16.7-6.6 6.5-6.5 6.5-16.6z"/>
</svg>