<svg width="14" height="18" viewBox="0 0 14 18" fill="none" xmlns="http://www.w3.org/2000/svg">
<path d="M2.83334 0.666748C2.1703 0.666748 1.53442 0.93014 1.06558 1.39898C0.596735 1.86782 0.333344 2.50371 0.333344 3.16675V14.8334C0.333344 15.4965 0.596736 16.1323 1.06558 16.6012C1.53442 17.07 2.1703 17.3334 2.83334 17.3334H11.1667C11.8297 17.3334 12.4656 17.07 12.9344 16.6012C13.4033 16.1323 13.6667 15.4965 13.6667 14.8334V14.0001C13.6667 13.5398 13.2936 13.1667 12.8333 13.1667C12.3731 13.1667 12 13.5398 12 14.0001V14.8334C12 15.0544 11.9122 15.2664 11.7559 15.4227C11.5997 15.579 11.3877 15.6667 11.1667 15.6667H2.83334C2.61233 15.6667 2.40037 15.579 2.24409 15.4227C2.08781 15.2664 2.00001 15.0544 2.00001 14.8334V3.16675C2.00001 2.94573 2.08781 2.73377 2.24409 2.57749C2.40037 2.42121 2.61233 2.33341 2.83334 2.33341H11.1667C11.3877 2.33341 11.5997 2.42121 11.7559 2.57749C11.9122 2.73377 12 2.94573 12 3.16675V4.00008C12 4.46032 12.3731 4.83341 12.8333 4.83341C13.2936 4.83341 13.6667 4.46032 13.6667 4.00008V3.16675C13.6667 2.50371 13.4033 1.86782 12.9344 1.39898C12.4656 0.93014 11.8297 0.666748 11.1667 0.666748H2.83334Z" fill="#D55F5A"/>
<path d="M10.9226 5.91083C10.5972 5.58539 10.0695 5.58539 9.74409 5.91083C9.41865 6.23626 9.41865 6.7639 9.74409 7.08934L10.8215 8.16675H7.00001C6.53977 8.16675 6.16668 8.53984 6.16668 9.00008C6.16668 9.46032 6.53977 9.83341 7.00001 9.83341H10.8215L9.74409 10.9108C9.41865 11.2363 9.41865 11.7639 9.74409 12.0893C10.0695 12.4148 10.5972 12.4148 10.9226 12.0893L13.4226 9.58934C13.748 9.2639 13.748 8.73626 13.4226 8.41083L10.9226 5.91083Z" fill="#D55F5A"/>
</svg>
