<svg width="21" height="21" viewBox="0 0 21 21" fill="none" xmlns="http://www.w3.org/2000/svg">
<path d="M10.4998 0.916992C5.20984 0.916992 0.916504 5.21033 0.916504 10.5003C0.916504 15.7903 5.20984 20.0837 10.4998 20.0837C15.7898 20.0837 20.0832 15.7903 20.0832 10.5003C20.0832 5.21033 15.7898 0.916992 10.4998 0.916992ZM11.4582 17.2087H9.5415V15.292H11.4582V17.2087ZM13.4419 9.78158L12.5794 10.6632C11.8894 11.3628 11.4582 11.9378 11.4582 13.3753H9.5415V12.8962C9.5415 11.842 9.97275 10.8837 10.6628 10.1841L11.8511 8.97657C12.2057 8.63158 12.4165 8.15241 12.4165 7.62533C12.4165 6.57116 11.554 5.70866 10.4998 5.70866C9.44567 5.70866 8.58317 6.57116 8.58317 7.62533H6.6665C6.6665 5.50741 8.38192 3.79199 10.4998 3.79199C12.6178 3.79199 14.3332 5.50741 14.3332 7.62533C14.3332 8.46866 13.9882 9.23533 13.4419 9.78158Z" fill="#6C727F"/>
</svg>
