<svg id="Group_32" data-name="Group 32" xmlns="http://www.w3.org/2000/svg" width="28.022" height="25.269" viewBox="0 0 28.022 25.269">
  <path id="Path_214" data-name="Path 214" d="M4.539,3.99A1.168,1.168,0,0,0,6.19,5.641a10.066,10.066,0,0,1,14.236,0A1.168,1.168,0,0,0,22.077,3.99a12.4,12.4,0,0,0-17.538,0Z" transform="translate(0.703 -0.358)" fill="#005f65"/>
  <path id="Path_215" data-name="Path 215" d="M7.676,8.586a1.168,1.168,0,0,1,0-1.651,7.222,7.222,0,0,1,10.213,0,1.168,1.168,0,0,1-1.651,1.651,4.886,4.886,0,0,0-6.91,0A1.168,1.168,0,0,1,7.676,8.586Z" transform="translate(1.229 0.39)" fill="#005f65"/>
  <path id="Path_216" data-name="Path 216" d="M14.011,9a3.5,3.5,0,0,0-1.152,6.812,1.178,1.178,0,0,0-.016.194v1.168a2.335,2.335,0,0,1-2.335,2.335h-3.5A2.335,2.335,0,0,0,4.67,17.173H2.335A2.335,2.335,0,0,0,0,19.508v2.335a2.335,2.335,0,0,0,2.335,2.335H4.67a2.335,2.335,0,0,0,2.335-2.335h3.5a4.659,4.659,0,0,0,3.5-1.581,4.659,4.659,0,0,0,3.5,1.581h3.5a2.335,2.335,0,0,0,2.335,2.335h2.335a2.335,2.335,0,0,0,2.335-2.335V19.508a2.335,2.335,0,0,0-2.335-2.335H23.351a2.335,2.335,0,0,0-2.335,2.335h-3.5a2.335,2.335,0,0,1-2.335-2.335V16.005a1.177,1.177,0,0,0-.016-.194A3.5,3.5,0,0,0,14.011,9Z" transform="translate(0 1.09)" fill-rule="evenodd"/>
</svg>
