<svg xmlns="http://www.w3.org/2000/svg" width="31.239" height="22.443" viewBox="0 0 31.239 22.443">
  <path id="link-alt-1-svgrepo-com" d="M12.788,24.414a5.338,5.338,0,0,1-.956.751,4.665,4.665,0,0,1-4.665,0A11.7,11.7,0,0,1,5.1,23.324a11.687,11.687,0,0,1-1.841-2.066,4.665,4.665,0,0,1,0-4.665A11.693,11.693,0,0,1,5.1,14.528l4.4-4.4a11.69,11.69,0,0,1,2.066-1.841,4.665,4.665,0,0,1,4.665,0A11.694,11.694,0,0,1,18.3,10.129l1.554,1.645.287.42a4.665,4.665,0,0,1,0,4.665,5.331,5.331,0,0,1-.751.956m-4.378-4.378a5.331,5.331,0,0,0-.751.956,4.665,4.665,0,0,0,0,4.665A11.684,11.684,0,0,0,16.1,21.125a11.7,11.7,0,0,0,2.066,1.841,4.665,4.665,0,0,0,4.665,0,11.689,11.689,0,0,0,2.066-1.841l4.4-4.4a11.686,11.686,0,0,0,1.841-2.066,4.665,4.665,0,0,0,0-4.665A11.683,11.683,0,0,0,29.291,7.93a11.693,11.693,0,0,0-2.066-1.841,4.665,4.665,0,0,0-4.665,0,5.333,5.333,0,0,0-.956.751" transform="translate(-1.577 -4.406)" fill="none" stroke="#000" stroke-linecap="round" stroke-width="2"/>
</svg>
