<svg xmlns="http://www.w3.org/2000/svg" width="34.956" height="38.285" viewBox="0 0 34.956 38.285">
  <g id="Group_251" data-name="Group 251" transform="translate(-449 -1000)">
    <path id="Path_591" data-name="Path 591" d="M17.291,1a1.665,1.665,0,0,0-1.665,1.665V4.329h-.832a8.322,8.322,0,0,0-8.323,8.322v4.994a10.38,10.38,0,0,1-1,4.02,23.827,23.827,0,0,1-2.091,3.71,3.39,3.39,0,0,0,2.1,5.271c1.691.3,4.08.668,6.893.9q-.005.122-.005.245a5.826,5.826,0,1,0,11.652,0q0-.129-.005-.258c2.75-.235,5.087-.591,6.748-.891a3.39,3.39,0,0,0,2.1-5.271,23.81,23.81,0,0,1-2.091-3.71,10.379,10.379,0,0,1-1-4.02V12.651a8.322,8.322,0,0,0-8.323-8.322h-.832V2.665A1.665,1.665,0,0,0,18.956,1Zm.832,30.794c.851,0,1.685-.017,2.5-.047a2.424,2.424,0,1,1-4.848.005C16.538,31.779,17.323,31.794,18.124,31.794ZM14.795,7.658A4.993,4.993,0,0,0,9.8,12.651v4.994A13.641,13.641,0,0,1,8.517,23a27.152,27.152,0,0,1-2.385,4.243.157.157,0,0,0-.028.073.161.161,0,0,0,0,.057,69.557,69.557,0,0,0,12.015,1.089,69.557,69.557,0,0,0,12.015-1.089.162.162,0,0,0,0-.057.159.159,0,0,0-.028-.073A27.145,27.145,0,0,1,27.73,23a13.641,13.641,0,0,1-1.284-5.358V12.651a4.993,4.993,0,0,0-4.994-4.993Z" transform="translate(448.354 1000.665)" fill="#353535" fill-rule="evenodd"/>
    <path id="Path_592" data-name="Path 592" d="M16.05,1.26A1.68,1.68,0,0,1,18.07.05c.116.029.225.061.413.124.23.077.544.194.917.362a12.271,12.271,0,0,1,2.756,1.716,13.218,13.218,0,0,1,4.655,9.234,1.664,1.664,0,1,1-3.312.331,9.9,9.9,0,0,0-3.459-7,8.946,8.946,0,0,0-2-1.249c-.264-.119-.477-.2-.614-.243-.057-.019-.114-.037-.171-.053A1.664,1.664,0,0,1,16.05,1.26Z" transform="translate(457.136 1000.001)" fill="#005f65" fill-rule="evenodd"/>
    <path id="Path_593" data-name="Path 593" d="M12.27,1.261A1.665,1.665,0,0,0,10.251.05c-.116.029-.226.061-.415.125-.23.077-.544.194-.917.362A12.272,12.272,0,0,0,6.164,2.252a13.218,13.218,0,0,0-4.655,9.234,1.665,1.665,0,0,0,3.313.331,9.9,9.9,0,0,1,3.459-7,8.943,8.943,0,0,1,2-1.249c.264-.119.477-.2.614-.243.057-.019.114-.037.171-.053A1.665,1.665,0,0,0,12.27,1.261Z" transform="translate(447.5 1000)" fill="#005f65" fill-rule="evenodd"/>
  </g>
</svg>
