<svg xmlns="http://www.w3.org/2000/svg" width="21" height="20" viewBox="0 0 21 20" fill="none">
  <g clip-path="url(#clip0_1_7654)">
    <path d="M16.4387 2.5H4.77201C3.84701 2.5 3.10535 3.25 3.10535 4.16667V15.8333C3.10535 16.75 3.84701 17.5 4.77201 17.5H16.4387C17.3553 17.5 18.1053 16.75 18.1053 15.8333V4.16667C18.1053 3.25 17.3637 2.5 16.4387 2.5ZM16.4387 15.8333H4.77201V5.83333H16.4387V15.8333ZM11.8553 10.8333C11.8553 11.525 11.297 12.0833 10.6053 12.0833C9.91368 12.0833 9.35535 11.525 9.35535 10.8333C9.35535 10.1417 9.91368 9.58333 10.6053 9.58333C11.297 9.58333 11.8553 10.1417 11.8553 10.8333ZM10.6053 7.5C8.33035 7.5 6.38868 8.88333 5.60535 10.8333C6.38868 12.7833 8.33035 14.1667 10.6053 14.1667C12.8803 14.1667 14.822 12.7833 15.6053 10.8333C14.822 8.88333 12.8803 7.5 10.6053 7.5ZM10.6053 12.9167C9.45535 12.9167 8.52201 11.9833 8.52201 10.8333C8.52201 9.68333 9.45535 8.75 10.6053 8.75C11.7553 8.75 12.6887 9.68333 12.6887 10.8333C12.6887 11.9833 11.7553 12.9167 10.6053 12.9167Z" fill="#2B2B2B"/>
  </g>
  <defs>
    <clipPath id="clip0_1_7654">
      <rect width="20" height="20" fill="white" transform="translate(0.605347)"/>
    </clipPath>
  </defs>
</svg>
