<svg xmlns="http://www.w3.org/2000/svg" width="20" height="20" viewBox="0 0 20 20">
  <path id="question-square-svgrepo-com" d="M12,22c-4.714,0-7.071,0-8.536-1.465S2,16.714,2,12,2,4.929,3.464,3.464,7.286,2,12,2s7.071,0,8.535,1.464S22,7.286,22,12s0,7.071-1.465,8.535S16.714,22,12,22ZM12,7.75a1.125,1.125,0,0,0-1.125,1.125.75.75,0,0,1-1.5,0A2.625,2.625,0,1,1,13.883,10.7c-.092.095-.18.183-.264.267a6.733,6.733,0,0,0-.571.618,1.118,1.118,0,0,0-.3.661V13a.75.75,0,0,1-1.5,0v-.75a2.582,2.582,0,0,1,.614-1.583,9.1,9.1,0,0,1,.75-.814c.07-.07.136-.136.193-.195A1.125,1.125,0,0,0,12,7.75ZM12,17a1,1,0,1,0-1-1A1,1,0,0,0,12,17Z" transform="translate(-2 -2)" fill="#005f65" fill-rule="evenodd" opacity="0.7"/>
</svg>
