<svg xmlns="http://www.w3.org/2000/svg" width="23" height="23" viewBox="0 0 23 23" fill="none">
  <g clip-path="url(#clip0_1_8669)">
    <path d="M12.4991 0.89258C12.8308 0.89258 13.1275 1.08669 13.2392 1.37733L14.0358 3.45314C14.3212 3.51997 14.5661 3.58679 14.7737 3.6568C15.0005 3.73317 15.2927 3.84879 15.6537 4.00684L17.5086 3.08402C17.6601 3.00861 17.8334 2.98139 18.0026 3.00644C18.1719 3.03149 18.328 3.10747 18.4474 3.22297L20.0789 4.80874C20.2955 5.01982 20.3564 5.32849 20.2346 5.59791L19.3647 7.51462C19.5091 7.76389 19.6242 7.97709 19.7122 8.15529C19.807 8.3494 19.9243 8.6167 20.0642 8.96143L22.0917 9.77818C22.3964 9.90016 22.5848 10.1866 22.5645 10.4931L22.4156 12.6941C22.4054 12.8371 22.3508 12.9741 22.2585 13.0882C22.1662 13.2023 22.0404 13.2884 21.8965 13.3358L19.9762 13.9776C19.9209 14.2268 19.8634 14.44 19.8025 14.6203C19.7042 14.8988 19.592 15.1728 19.4662 15.4413L20.4309 17.4461C20.499 17.5869 20.5173 17.7446 20.4832 17.896C20.4491 18.0473 20.3643 18.1844 20.2414 18.2872L18.4068 19.8274C18.2859 19.9284 18.1352 19.9923 17.9747 20.0105C17.8141 20.0287 17.6515 20.0003 17.5086 19.9292L15.6176 18.9873C15.3218 19.1346 15.0166 19.2646 14.7037 19.3766L13.8778 19.6672L13.1444 21.5765C13.0901 21.7163 12.9921 21.8374 12.8632 21.9239C12.7343 22.0105 12.5807 22.0583 12.4223 22.0613L10.2786 22.1069C10.1161 22.1109 9.95624 22.0674 9.82107 21.9825C9.68589 21.8976 9.58203 21.7754 9.52378 21.6327L8.65951 19.4827C8.36463 19.3879 8.07266 19.2853 7.78396 19.175C7.54783 19.079 7.31527 18.9753 7.08668 18.8643L4.94294 19.7256C4.80169 19.7822 4.64596 19.799 4.49472 19.774C4.34348 19.7489 4.20324 19.6831 4.09109 19.5845L2.50472 18.1854C2.38661 18.0817 2.30618 17.9457 2.27479 17.7966C2.24341 17.6476 2.26266 17.4931 2.32983 17.3549L3.25164 15.4668C3.12905 15.2432 3.01539 15.0153 2.9109 14.7837C2.78893 14.5002 2.67606 14.2133 2.57242 13.9235L0.552786 13.3454C0.388621 13.2987 0.245435 13.2024 0.145464 13.0714C0.0454923 12.9404 -0.00566858 12.782 -7.36715e-05 12.6209L0.0789063 10.5833C0.084528 10.4503 0.128705 10.3213 0.20666 10.2103C0.284614 10.0992 0.39338 10.0103 0.521194 9.9532L2.64011 8.99644C2.73827 8.65807 2.82402 8.39501 2.89962 8.20302C3.00606 7.94659 3.12427 7.69461 3.2539 7.44779L2.33548 5.62337C2.26578 5.48482 2.24461 5.32906 2.27502 5.17849C2.30543 5.02792 2.38585 4.89029 2.50472 4.7854L4.08883 3.37889C4.19988 3.28043 4.33882 3.21423 4.48895 3.18826C4.63908 3.16229 4.79399 3.17766 4.93504 3.23252L7.07653 4.06412C7.31347 3.91562 7.52784 3.79575 7.72191 3.69923C7.95321 3.58361 8.26236 3.46269 8.65161 3.33222L9.39628 1.37945C9.45133 1.23654 9.55197 1.11308 9.68444 1.02594C9.81691 0.938807 9.97476 0.892232 10.1364 0.89258H12.4991ZM11.3099 8.33773C9.429 8.33773 7.90469 9.75379 7.90469 11.5018C7.90469 13.2499 9.429 14.667 11.3099 14.667C13.1896 14.667 14.7139 13.2499 14.7139 11.5018C14.7139 9.75379 13.1907 8.33773 11.3099 8.33773Z" fill="black"/>
  </g>
  <defs>
    <clipPath id="clip0_1_8669">
      <rect width="22.5657" height="21.2143" fill="white" transform="translate(0 0.892578)"/>
    </clipPath>
  </defs>
</svg>
