<svg xmlns="http://www.w3.org/2000/svg" width="21" height="18" viewBox="0 0 21 18" fill="none">
  <mask id="path-1-inside-1_1_7622" fill="white">
    <path d="M0 1C0 0.447715 0.447715 0 1 0H20C20.5523 0 21 0.447715 21 1V6.54688C21 7.09916 20.5523 7.54688 20 7.54688H1C0.447715 7.54688 0 7.09916 0 6.54688V1Z"/>
  </mask>
  <path d="M0 1C0 0.447715 0.447715 0 1 0H20C20.5523 0 21 0.447715 21 1V6.54688C21 7.09916 20.5523 7.54688 20 7.54688H1C0.447715 7.54688 0 7.09916 0 6.54688V1Z" fill="white" stroke="#2B2B2B" stroke-width="4" mask="url(#path-1-inside-1_1_7622)"/>
  <mask id="path-2-inside-2_1_7622" fill="white">
    <path d="M0 10.7031C0 10.1508 0.447715 9.70312 1 9.70312H8.54545C9.09774 9.70312 9.54545 10.1508 9.54545 10.7031V16.25C9.54545 16.8023 9.09774 17.25 8.54545 17.25H1C0.447717 17.25 0 16.8023 0 16.25V10.7031Z"/>
  </mask>
  <path d="M0 10.7031C0 10.1508 0.447715 9.70312 1 9.70312H8.54545C9.09774 9.70312 9.54545 10.1508 9.54545 10.7031V16.25C9.54545 16.8023 9.09774 17.25 8.54545 17.25H1C0.447717 17.25 0 16.8023 0 16.25V10.7031Z" fill="white" stroke="#2B2B2B" stroke-width="4" mask="url(#path-2-inside-2_1_7622)"/>
  <mask id="path-3-inside-3_1_7622" fill="white">
    <path d="M11.4541 10.7031C11.4541 10.1508 11.9018 9.70312 12.4541 9.70312H19.9996C20.5518 9.70312 20.9996 10.1508 20.9996 10.7031V16.25C20.9996 16.8023 20.5518 17.25 19.9996 17.25H12.4541C11.9018 17.25 11.4541 16.8023 11.4541 16.25V10.7031Z"/>
  </mask>
  <path d="M11.4541 10.7031C11.4541 10.1508 11.9018 9.70312 12.4541 9.70312H19.9996C20.5518 9.70312 20.9996 10.1508 20.9996 10.7031V16.25C20.9996 16.8023 20.5518 17.25 19.9996 17.25H12.4541C11.9018 17.25 11.4541 16.8023 11.4541 16.25V10.7031Z" fill="white" stroke="#2B2B2B" stroke-width="6" mask="url(#path-3-inside-3_1_7622)"/>
</svg>
