<svg width="20" height="20" viewBox="0 0 30 30" fill="none" xmlns="http://www.w3.org/2000/svg">
<g id="Visibility">
<path id="Vector" d="M15.0892 5.625C8.95079 5.625 3.7086 9.5125 1.58472 15C3.7086 20.4875 8.95079 24.375 15.0892 24.375C21.2276 24.375 26.4698 20.4875 28.5936 15C26.4698 9.5125 21.2276 5.625 15.0892 5.625ZM15.0892 21.25C11.7008 21.25 8.95079 18.45 8.95079 15C8.95079 11.55 11.7008 8.75 15.0892 8.75C18.4776 8.75 21.2276 11.55 21.2276 15C21.2276 18.45 18.4776 21.25 15.0892 21.25ZM15.0892 11.25C13.0512 11.25 11.4061 12.925 11.4061 15C11.4061 17.075 13.0512 18.75 15.0892 18.75C17.1271 18.75 18.7722 17.075 18.7722 15C18.7722 12.925 17.1271 11.25 15.0892 11.25Z" fill="#005F65"/>
</g>
</svg>
