<svg xmlns="http://www.w3.org/2000/svg" width="600.1" height="128.8" viewBox="0 0 600.1 128.8">
  <g id="Group_302" data-name="Group 302" transform="translate(-87 -2134)">
    <path id="Path_633" data-name="Path 633" d="M21.1,230.7H136.9c20.7,0,30.1,6.7,30.1,24.9v28.5c0,18-9.4,24.9-30.1,24.9H52.3v50.1H21.1ZM52.3,253v34.1h71.5c9.4,0,14.3-1.8,14.3-10.2V263.5c0-8.5-4.9-10.2-14.3-10.2H52.3Zm119.4-22.3h31.6V335.4H304.2v24.1H171.7Zm338.5,62.8-64.8-62.8h41.9l43.2,41.6,40.8-41.6h36.3l-58.8,59,72.4,69.7h-43L529,311.3l-45.2,48.1H446.6Z" transform="translate(65.9 1903.3)"/>
    <path id="Path_634" data-name="Path 634" d="M308.6,335.4H441.1v24.1H308.6Zm0-104.7H441.1v24.1H308.6Zm0,52.4H441.1v24.1H308.6Z" transform="translate(65.9 1903.3)" fill="#3beedd"/>
  </g>
</svg>
