<?xml version="1.0" encoding="utf-8"?>
<!-- Generator: Adobe Illustrator 19.2.1, SVG Export Plug-In . SVG Version: 6.00 Build 0)  -->
<svg version="1.1" id="layer" xmlns="http://www.w3.org/2000/svg" xmlns:xlink="http://www.w3.org/1999/xlink" x="0px" y="0px"
	 viewBox="0 0 652 652" style="enable-background:new 0 0 652 652;" xml:space="preserve">
<style type="text/css">
	.st0{fill:#182339;}
</style>
<path class="st0" d="M286,368.4v-84.1h27.3l2.2-14.9H240v14.9h28.1v84.1H286z M370.6,369.7c22.3,0,34.3-10,34.3-33.5v-66.8h-17.8
	v66.5c0,11.3-2.4,19.4-17.6,19.4h-4c-15.2,0-17.7-8-17.7-19.4v-66.5H330v66.8c0,23.5,12.2,33.5,34.4,33.5H370.6z M493.9,368.4v-14.8
	h-46.2v-84.2h-17.8v99.1H493.9z M531,368.4v-99.1h-17.8v99.1H531z M575.1,368.4v-38.9h19.8c22,0,31.1-7.5,31.1-25.7v-7.5
	c0-20.8-8.2-27-32-27h-36.8v99.1H575.1z M608,303.6c0,8.9-2.2,11.5-14.9,11.5h-18v-31.1h18c13,0,14.9,3,14.9,12.5V303.6z
	 M173.5,281.7V347l-65.4,65.4V347L173.5,281.7z M91.4,347v65.4L26,347v-65.4L91.4,347z M146.1,285.9l-46.3,46.2l-46.2-46.2
	l46.3-46.2L146.1,285.9z"/>
</svg>
