<svg id="Layer_1" data-name="Layer 1" xmlns="http://www.w3.org/2000/svg" viewBox="0 0 836.55 418.61"><defs><style>.cls-1{fill:#91e6ad;}</style></defs><path class="cls-1" d="M851.84,456H698.46V351.7c6.32-.44,11.7-1.15,17.07-1.15,61.11-.07,122.22-.17,183.32,0,36.13.11,57.74,21.3,58.1,57.12q1,97.14,1.32,194.27c.12,36.81-20.73,59.79-57.85,60.11q-150.92,1.29-301.83,0c-39.49-.32-61.42-23.82-61.2-63.45.22-41.25,1.44-82.51,3.05-123.74.54-14-3.07-19.86-18.42-19.15-27,1.23-54,.34-83.15.34,0,42.9-.09,84,0,125,.07,22.81.2,45.63.89,68.43.31,10.23-3.37,14.4-13.84,14.24-26.54-.41-53.1-.62-79.62.11-12.79.34-16.31-5.91-15.82-16.83.92-20.88,2.56-41.74,2.83-62.63.49-37-.43-74,.5-111,.36-14.22-4.64-18.1-18.14-17.58-24,.91-48.14.61-72.2.09-10.71-.23-15.75,2.66-15.47,14.48,1.36,56.65,1.73,113.33,3.29,170,.56,20.31-1.11,23.23-22.1,23.35-9.25,0-18.53-.38-27.77.07-34.38,1.69-57.74-21.21-58.77-57.38-1.93-67.79-.49-135.7.48-203.55.45-31.21,24.05-51.85,57.64-51.91q167.59-.27,335.18-.1h24.18V245.3H645.53c0,8.27,0,15.48,0,22.69.5,88.19,1.35,176.38,1.17,264.57,0,15.48,6.21,18.64,19.79,18.53,55.55-.46,111.11-.56,166.65.07,14.62.16,19.57-4.77,19-19.33C851.12,507.43,851.84,483,851.84,456Z" transform="translate(-121.73 -245.3)"/></svg>