<?xml version="1.0" encoding="utf-8"?>
<!-- Generator: Adobe Illustrator 19.2.1, SVG Export Plug-In . SVG Version: 6.00 Build 0)  -->
<svg version="1.1" id="layer" xmlns="http://www.w3.org/2000/svg" xmlns:xlink="http://www.w3.org/1999/xlink" x="0px" y="0px"
	 viewBox="0 0 652 652" style="enable-background:new 0 0 652 652;" xml:space="preserve">
<style type="text/css">
	.st0{fill:#00609C;}
</style>
<g>
	<path class="st0" d="M313.1,186.9l-65.3,37.7c-4.9,2.8-7.9,8-7.9,13.7v15.9l102.7-59.3l-13.8-7.9C324,184.1,318,184.1,313.1,186.9"
		/>
	<path class="st0" d="M375.5,284.4l-5,2.9l5,2.8v13.8L340.7,324v-59.7l34.8-20.1l26.3-15.2l-24.4-14.1l-70.6,40.8v105.6l6.3,3.6
		c4.9,2.8,10.9,2.8,15.8,0l65.3-37.7c4.9-2.8,7.9-8,7.9-13.7v-44.5L375.5,284.4z"/>
	<path class="st0" d="M247.9,327.3l24.2,14v-65.4L240,294.3v19.3C240,319.2,243,324.4,247.9,327.3"/>
	<polygon class="st0" points="40.1,404 20.4,404 20.4,393.9 70.9,393.9 70.9,404 51.1,404 51.1,456.1 40.1,456.1 	"/>
	<path class="st0" d="M82.4,393.9h27.7c7.8,0,14,2.3,18,6.2c3.3,3.4,5.2,8,5.2,13.4v0.2c0,10.2-6.1,16.4-14.8,18.8l16.8,23.6h-13
		L107,434.4H93.3v21.7H82.4V393.9z M109.3,424.7c7.8,0,12.8-4.1,12.8-10.4v-0.2c0-6.7-4.8-10.3-12.9-10.3H93.3v20.9H109.3z"/>
	<path class="st0" d="M168.7,393.4h10.1l27.4,62.7h-11.6l-6.3-15h-29.4l-6.4,15h-11.2L168.7,393.4z M184.3,431.4l-10.8-24.9
		l-10.7,24.9H184.3z"/>
	<path class="st0" d="M210.2,425.2V425c0-17.7,13.2-32.2,32.1-32.2c11.5,0,18.4,4,24.4,9.7l-7,8.1c-5-4.6-10.3-7.7-17.4-7.7
		c-11.8,0-20.5,9.8-20.5,22v0.2c0,12.2,8.6,22,20.5,22c7.6,0,12.5-3,17.9-8l7,7.1c-6.5,6.8-13.6,11-25.2,11
		C223.7,457.2,210.2,443,210.2,425.2"/>
	<polygon class="st0" points="278.5,393.9 324.7,393.9 324.7,403.6 289.5,403.6 289.5,419.8 320.7,419.8 320.7,429.6 289.5,429.6 
		289.5,446.3 325.1,446.3 325.1,456.1 278.5,456.1 	"/>
	<path class="st0" d="M335.3,425.2V425c0-17.4,13.3-32.2,32.1-32.2c10.8,0,17.5,3,23.9,8.4l-6.9,8.3c-4.8-4.1-9.5-6.7-17.4-6.7
		c-11.5,0-20.2,10-20.2,22v0.2c0,12.8,8.4,22.2,21.2,22.2c5.9,0,11.2-1.9,15-4.7v-11.6h-15.9v-9.5h26.5v26.1
		c-6.1,5.2-14.9,9.7-26,9.7C348.1,457.2,335.3,443.3,335.3,425.2"/>
	<path class="st0" d="M429.8,393.4h10.1l27.4,62.7h-11.6l-6.3-15H420l-6.4,15h-11.2L429.8,393.4z M445.5,431.4l-10.8-24.9L424,431.4
		H445.5z"/>
	<rect x="478.6" y="393.9" class="st0" width="10.9" height="62.2"/>
	<polygon class="st0" points="506.2,393.9 516.3,393.9 549.6,436.9 549.6,393.9 560.4,393.9 560.4,456.1 551.2,456.1 516.9,411.8 
		516.9,456.1 506.2,456.1 	"/>
	<path class="st0" d="M572.2,447l6.6-7.8c6,5.2,12,8.1,19.6,8.1c6.8,0,11-3.2,11-7.8v-0.2c0-4.4-2.5-6.8-14-9.5
		c-13.2-3.2-20.7-7.1-20.7-18.6V411c0-10.7,8.9-18,21.2-18c9.1,0,16.3,2.8,22.6,7.8l-5.9,8.3c-5.6-4.2-11.2-6.4-16.9-6.4
		c-6.4,0-10.1,3.3-10.1,7.4v0.2c0,4.8,2.8,6.9,14.8,9.8c13.2,3.2,19.9,7.9,19.9,18.2v0.2c0,11.6-9.2,18.6-22.2,18.6
		C588.6,457,579.7,453.7,572.2,447"/>
</g>
</svg>
